<svg width="21" height="19" viewBox="0 0 21 19" fill="none" xmlns="http://www.w3.org/2000/svg">
<path d="M10.4333 15.55L10.3333 15.65L10.2233 15.55C5.47331 11.24 2.33331 8.39 2.33331 5.5C2.33331 3.5 3.83331 2 5.83331 2C7.37331 2 8.87331 3 9.40331 4.36H11.2633C11.7933 3 13.2933 2 14.8333 2C16.8333 2 18.3333 3.5 18.3333 5.5C18.3333 8.39 15.1933 11.24 10.4333 15.55ZM14.8333 0C13.0933 0 11.4233 0.81 10.3333 2.08C9.24331 0.81 7.57331 0 5.83331 0C2.75331 0 0.333313 2.41 0.333313 5.5C0.333313 9.27 3.73331 12.36 8.88331 17.03L10.3333 18.35L11.7833 17.03C16.9333 12.36 20.3333 9.27 20.3333 5.5C20.3333 2.41 17.9133 0 14.8333 0Z" fill="#DB6B97"/>
</svg>
